<?xml version="1.0" encoding="UTF-8" standalone="no"?>
<!-- Created with Inkscape (http://www.inkscape.org/) -->

<svg
   xmlns:dc="http://purl.org/dc/elements/1.1/"
   xmlns:cc="http://creativecommons.org/ns#"
   xmlns:rdf="http://www.w3.org/1999/02/22-rdf-syntax-ns#"
   xmlns:svg="http://www.w3.org/2000/svg"
   xmlns="http://www.w3.org/2000/svg"
   xmlns:sodipodi="http://sodipodi.sourceforge.net/DTD/sodipodi-0.dtd"
   xmlns:inkscape="http://www.inkscape.org/namespaces/inkscape"
   width="512"
   height="512"
   viewBox="0 0 512.00001 512.00001"
   id="svg2"
   version="1.1"
   inkscape:version="0.91 r13725"
   sodipodi:docname="icon.svg">
  <defs
     id="defs4" />
  <sodipodi:namedview
     id="base"
     pagecolor="#ffffff"
     bordercolor="#666666"
     borderopacity="1.0"
     inkscape:pageopacity="0.0"
     inkscape:pageshadow="2"
     inkscape:zoom="1.979899"
     inkscape:cx="279.77625"
     inkscape:cy="247.49131"
     inkscape:document-units="px"
     inkscape:current-layer="layer1"
     showgrid="false"
     inkscape:snap-bbox="true"
     inkscape:snap-bbox-midpoints="true"
     units="px"
     inkscape:snap-page="true"
     inkscape:snap-object-midpoints="true"
     inkscape:snap-center="true"
     inkscape:window-width="3200"
     inkscape:window-height="1690"
     inkscape:window-x="0"
     inkscape:window-y="54"
     inkscape:window-maximized="1" />
  <metadata
     id="metadata7">
    <rdf:RDF>
      <cc:Work
         rdf:about="">
        <dc:format>image/svg+xml</dc:format>
        <dc:type
           rdf:resource="http://purl.org/dc/dcmitype/StillImage" />
        <dc:title></dc:title>
      </cc:Work>
    </rdf:RDF>
  </metadata>
  <g
     inkscape:label="Layer 1"
     inkscape:groupmode="layer"
     id="layer1"
     transform="translate(0,-540.36216)">
    <g
       id="g4146"
       transform="matrix(1.833467,0,0,1.833467,-305.31221,-104.51438)">
      <rect
         rx="5.0999999"
         y="397.71936"
         x="167.14285"
         height="145"
         width="234.61493"
         id="rect4136"
         style="opacity:1;fill:#666666;fill-opacity:1;stroke:none;stroke-opacity:1" />
      <rect
         y="508.18365"
         x="283.02173"
         height="31.42857"
         width="2.8571427"
         id="rect4138"
         style="opacity:1;fill:#cccccc;fill-opacity:1;stroke:none;stroke-opacity:1" />
      <path
         inkscape:connector-curvature="0"
         style="color:#000000;font-style:normal;font-variant:normal;font-weight:normal;font-stretch:normal;font-size:medium;line-height:normal;font-family:Sans;-inkscape-font-specification:Sans;text-indent:0;text-align:start;text-decoration:none;text-decoration-line:none;letter-spacing:normal;word-spacing:normal;text-transform:none;direction:ltr;block-progression:tb;writing-mode:lr-tb;baseline-shift:baseline;text-anchor:start;display:inline;overflow:visible;visibility:visible;fill:#ffffff;fill-opacity:1;stroke:#000000;stroke-width:2.47326088;stroke-miterlimit:4;stroke-dasharray:none;stroke-opacity:1;marker:none;enable-background:accumulate"
         d="m 298.28608,442.48076 a 12.367541,12.367541 0 0 0 -0.58302,11.5625 l 35.03557,77.30169 a 12.367541,12.367541 0 0 0 0.24189,0.45849 l 2.61505,5.77202 -2.52661,1.13684 -11.67824,-25.76737 a 12.367541,12.367541 0 0 0 -16.6035,-6.28673 12.367541,12.367541 0 0 0 -5.91821,16.48727 l 22.9176,50.55476 5.13212,11.28319 11.23862,-5.06838 21.54163,-9.76181 6.1854,-2.79471 c 0.0527,-0.0223 0.10116,-0.0561 0.15211,-0.0809 l 4.94489,-2.25708 65.19169,-29.54478 c 7.58366,-3.43665 11.09446,-12.79146 7.65784,-20.37517 l -12.5201,-27.51161 a 12.367541,12.367541 0 0 0 -0.19687,-0.52139 l -0.0992,-0.26068 -7.58477,-16.74977 a 12.367541,12.367541 0 0 0 -16.64863,-6.22396 12.367541,12.367541 0 0 0 -6.41042,15.18372 l -2.22064,0.97617 -6.04505,-13.45896 a 12.367541,12.367541 0 0 0 -16.64853,-6.22389 12.367541,12.367541 0 0 0 -5.87313,16.42441 l 6.04502,13.45896 -2.94014,1.31605 -6.08969,-13.39627 a 12.367541,12.367541 0 0 0 -16.64853,-6.22389 12.367541,12.367541 0 0 0 -5.87315,16.42441 l 6.08969,13.39629 -2.98474,1.37971 -26.91199,-59.31171 a 12.367541,12.367541 0 0 0 -16.58571,-6.17887 12.367541,12.367541 0 0 0 -5.398,4.87974 z"
         id="path17319" />
    </g>
  </g>
</svg>
